<svg width="24" height="24" viewBox="0 0 24 24" fill="none" xmlns="http://www.w3.org/2000/svg">
<path fill-rule="evenodd" clip-rule="evenodd" d="M20.8969 5.16575C21.0892 5.45687 21.0571 5.85248 20.8008 6.10876L11.6084 15.3011C11.5142 15.3954 11.3966 15.4628 11.2677 15.4965L7.43923 16.4965C7.31437 16.5291 7.18566 16.5284 7.06473 16.4976C6.93616 16.4649 6.81639 16.3982 6.71937 16.3011C6.5311 16.1129 6.45676 15.8389 6.52405 15.5813L7.52405 11.7528C7.55351 11.64 7.60881 11.5286 7.68529 11.4412L16.9117 2.21967C16.9925 2.13891 17.0898 2.07846 17.1957 2.04163C17.2742 2.01432 17.3574 2 17.4421 2C17.641 2 17.8318 2.07902 17.9724 2.21967L20.8008 5.0481C20.8374 5.08471 20.8695 5.12416 20.8969 5.16575ZM19.2098 5.57843L17.4421 3.81066L8.92391 12.3288L8.29893 14.7216L10.6917 14.0966L19.2098 5.57843Z" fill="black"/>
<path d="M19.0834 16.9103C19.3568 14.5727 19.4438 12.2188 19.3444 9.87079C19.3397 9.75837 19.3819 9.64898 19.4615 9.56942L20.4448 8.58609C20.5657 8.46519 20.7723 8.54194 20.7836 8.71254C20.9685 11.5022 20.8984 14.3045 20.5733 17.0846C20.3367 19.1071 18.7124 20.6921 16.7003 20.917C13.2338 21.3044 9.65042 21.3044 6.18385 20.917C4.17179 20.6921 2.54746 19.1071 2.3109 17.0846C1.89637 13.5403 1.89637 9.95973 2.3109 6.41543C2.54746 4.3929 4.17179 2.80789 6.18385 2.58301C8.8136 2.2891 11.5105 2.21815 14.1727 2.37016C14.3443 2.37996 14.4225 2.58757 14.301 2.70909L13.3084 3.70165C13.2298 3.78034 13.1218 3.82261 13.0106 3.81885C10.7842 3.74376 8.54263 3.82872 6.35046 4.07373C5.02035 4.22239 3.95486 5.272 3.80075 6.58968C3.39975 10.0182 3.39975 13.4818 3.80075 16.9103C3.95486 18.228 5.02035 19.2776 6.35046 19.4263C9.70631 19.8013 13.1779 19.8013 16.5337 19.4263C17.8638 19.2776 18.9293 18.228 19.0834 16.9103Z" fill="black"/>
</svg>
