<svg width="24" height="24" viewBox="0 0 24 24" fill="none" xmlns="http://www.w3.org/2000/svg">
<path d="M12.7058 21.375C12.1211 21.375 11.647 21.8787 11.647 22.5C11.647 23.1213 12.1211 23.625 12.7058 23.625H21.1764C22.5409 23.625 23.647 22.4497 23.647 21V3C23.647 1.55025 22.5409 0.375 21.1764 0.375H12.7058C12.1211 0.375 11.647 0.878682 11.647 1.5C11.647 2.12132 12.1211 2.625 12.7058 2.625L21.1764 2.625C21.3714 2.625 21.5294 2.79289 21.5294 3L21.5294 21C21.5294 21.2071 21.3714 21.375 21.1764 21.375H12.7058Z" fill="#C10000"/>
<path fill-rule="evenodd" clip-rule="evenodd" d="M16.2396 15.5478C17.2142 15.5478 18.0043 14.7084 18.0043 13.6728V10.3121C18.0043 9.27652 17.2142 8.43706 16.2396 8.43706L9.7277 8.43706C9.71849 8.32691 9.70885 8.2168 9.69878 8.10673L9.62251 7.2729C9.50613 6.00074 8.2347 5.23887 7.14987 5.79126C4.84272 6.96605 2.7541 8.57367 0.984465 10.5368L0.844419 10.6922C0.189067 11.4192 0.189067 12.5657 0.844418 13.2927L0.984465 13.4481C2.7541 15.4112 4.84272 17.0188 7.14986 18.1936C8.23469 18.746 9.50614 17.9841 9.62251 16.712L9.69878 15.8781C9.70885 15.7681 9.71849 15.658 9.7277 15.5478H16.2396ZM8.746 13.2978C8.36995 13.2978 8.0375 13.5068 7.84949 13.824C7.75793 13.9784 7.70063 14.1586 7.68923 14.3528C7.66362 14.7891 7.63089 15.2251 7.59107 15.6605L7.56893 15.9025C6.10627 15.1016 4.74796 14.1042 3.52708 12.9359C3.21035 12.6327 2.90286 12.3181 2.6052 11.9924C4.0502 10.4114 5.72681 9.09104 7.56893 8.08237L7.59107 8.32438C7.63089 8.7598 7.66362 9.19576 7.68923 9.63209C7.72404 10.2251 8.18682 10.6871 8.746 10.6871H15.8867V13.2978H8.746Z" fill="#C10000"/>
</svg>
