<svg width="8" height="13" viewBox="0 0 8 13" fill="none" xmlns="http://www.w3.org/2000/svg">
<path d="M0.830665 12.18C0.670114 12.0194 0.579921 11.8017 0.579921 11.5746C0.579921 11.3475 0.670114 11.1297 0.830665 10.9691L5.36361 6.43614L0.830665 1.90319C0.748869 1.82419 0.683626 1.72969 0.638743 1.62521C0.593859 1.52072 0.570234 1.40835 0.569246 1.29463C0.568258 1.18092 0.589927 1.06815 0.632988 0.962901C0.676049 0.857652 0.739639 0.762033 0.820049 0.681623C0.90046 0.601212 0.996078 0.537621 1.10133 0.494559C1.20658 0.451499 1.31935 0.429831 1.43306 0.430819C1.54677 0.431807 1.65915 0.455433 1.76363 0.500316C1.86812 0.545199 1.96262 0.610441 2.04162 0.692236L7.18005 5.83066C7.3406 5.99126 7.43079 6.20905 7.43079 6.43614C7.43079 6.66323 7.3406 6.88102 7.18005 7.04162L2.04162 12.18C1.88102 12.3406 1.66323 12.4308 1.43614 12.4308C1.20905 12.4308 0.991264 12.3406 0.830665 12.18Z" fill="#0D0D0D"/>
</svg>
