<svg width="12" height="7" viewBox="0 0 12 7" fill="none" xmlns="http://www.w3.org/2000/svg">
<path d="M0.250744 0.261451C0.411343 0.1009 0.629134 0.010707 0.856221 0.010707C1.08331 0.010707 1.3011 0.1009 1.4617 0.261451L5.99465 4.7944L10.5276 0.261451C10.6066 0.179655 10.7011 0.114412 10.8056 0.0695288C10.9101 0.0246455 11.0224 0.00102047 11.1362 3.23341e-05C11.2499 -0.000955799 11.3626 0.0207133 11.4679 0.0637741C11.5731 0.106835 11.6688 0.170426 11.7492 0.250836C11.8296 0.331246 11.8932 0.426865 11.9362 0.532114C11.9793 0.637363 12.001 0.750133 12 0.863846C11.999 0.977559 11.9754 1.08994 11.9305 1.19442C11.8856 1.29891 11.8203 1.39341 11.7385 1.47241L6.60012 6.61083C6.43952 6.77138 6.22173 6.86157 5.99465 6.86157C5.76756 6.86157 5.54977 6.77138 5.38917 6.61083L0.250744 1.47241C0.0901927 1.31181 0 1.09402 0 0.866928C0 0.639841 0.0901927 0.42205 0.250744 0.261451V0.261451Z" fill="#0D0D0D"/>
</svg>
