<svg width="14" height="13" viewBox="0 0 14 13" fill="none" xmlns="http://www.w3.org/2000/svg">
<path fill-rule="evenodd" clip-rule="evenodd" d="M7.00002 1.88158C4.19718 1.88158 1.92502 4.10248 1.92502 6.8421C1.92502 9.58173 4.19718 11.8026 7.00002 11.8026C9.80287 11.8026 12.075 9.58173 12.075 6.8421C12.075 4.10248 9.80287 1.88158 7.00002 1.88158ZM0.875024 6.8421C0.875024 3.53566 3.61728 0.855262 7.00002 0.855262C10.3828 0.855262 13.125 3.53566 13.125 6.8421C13.125 10.1485 10.3828 12.8289 7.00002 12.8289C3.61728 12.8289 0.875024 10.1485 0.875024 6.8421Z" fill="#7C7C7C"/>
<path fill-rule="evenodd" clip-rule="evenodd" d="M7.00002 2.90789C7.28997 2.90789 7.52502 3.13764 7.52502 3.42105V6.55769L9.37827 7.68984C9.62415 7.84005 9.6989 8.15664 9.54522 8.39697C9.39155 8.6373 9.06765 8.71036 8.82177 8.56016L6.72178 7.27726C6.56827 7.18349 6.47502 7.01904 6.47502 6.8421V3.42105C6.47502 3.13764 6.71007 2.90789 7.00002 2.90789Z" fill="#7C7C7C"/>
<path fill-rule="evenodd" clip-rule="evenodd" d="M3.17126 0.321351C3.37628 0.521752 3.37628 0.846666 3.17126 1.04707L1.42126 2.75759C1.21623 2.95799 0.883819 2.95799 0.678793 2.75759C0.473768 2.55719 0.473768 2.23228 0.678793 2.03188L2.42879 0.321351C2.63382 0.120951 2.96623 0.120951 3.17126 0.321351Z" fill="#7C7C7C"/>
<path fill-rule="evenodd" clip-rule="evenodd" d="M10.8288 0.321351C10.6238 0.521752 10.6238 0.846666 10.8288 1.04707L12.5788 2.75759C12.7838 2.95799 13.1162 2.95799 13.3213 2.75759C13.5263 2.55719 13.5263 2.23228 13.3213 2.03188L11.5713 0.321351C11.3662 0.120951 11.0338 0.120951 10.8288 0.321351Z" fill="#7C7C7C"/>
</svg>
